<?xml version="1.0" encoding="utf-8"?>
<!-- Generator: Adobe Illustrator 24.0.3, SVG Export Plug-In . SVG Version: 6.00 Build 0)  -->
<svg version="1.1" id="Layer_1" xmlns="http://www.w3.org/2000/svg" xmlns:xlink="http://www.w3.org/1999/xlink" x="0px" y="0px"
	 viewBox="0 0 54.7 65.9" style="enable-background:new 0 0 54.7 65.9;" xml:space="preserve">
<style type="text/css">
	.st0{fill:#FFFFFF;stroke:#FFFFFF;stroke-width:5;stroke-miterlimit:10;}
	.st1{fill:#FFFFFF;}
</style>
<g>
	<path d="M-171.1-4.2c1.9-1.5,3.9-1,5.8-1.1c1.9,0,3.9,0,5.8,0.1c3.9,0.1,7.8,0.2,11.6,0.3c7.8,0.3,15.5,0.6,23.3,0.6
		s15.5-0.1,23.2-0.2c7.8-0.2,15.5-0.5,23.2-1c3.9-0.3,7.3,2.7,7.6,6.6s-2.7,7.3-6.6,7.6c-0.3,0-0.7,0-1,0c-7.8-0.6-15.5-0.8-23.2-1
		c-7.8-0.2-15.5-0.3-23.2-0.2c-7.8,0-15.5,0.4-23.3,0.6c-3.9,0.1-7.8,0.3-11.6,0.3c-1.9,0.1-3.9,0-5.8,0.1c-1.9-0.1-3.9,0.4-5.8-1.1
		c-3.2-2.5-3.7-7.2-1.2-10.3C-171.9-3.5-171.5-3.9-171.1-4.2z"/>
</g>
<g>
	<path d="M-171.1-39.1c1.9-0.3,3.9-0.3,5.8-0.4l5.8-0.3l11.6-0.5l23.3-1l2.9-0.1c1,0,1.9,0,2.9,0l5.8,0.1l11.6,0.2
		c7.8,0.2,15.5,0.3,23.2,0.5c3.9,0.1,7,3.4,6.9,7.2s-3.2,6.8-6.9,6.9c-7.8,0.2-15.5,0.4-23.2,0.5l-11.6,0.4l-5.8,0.1
		c-1,0-1.9,0.1-2.9,0l-2.9-0.1l-23.3-1l-11.6-0.6l-5.8-0.3c-1.9-0.1-3.9-0.1-5.8-0.4c-3.1-0.4-5.3-3.3-4.9-6.4
		C-175.7-36.8-173.6-38.8-171.1-39.1z"/>
</g>
<g>
	<path d="M-170.6,30.3c1.9-1.6,3.9-1,5.8-1.1c1.9,0,3.9,0,5.8,0.1c3.9,0.1,7.8,0.3,11.6,0.5c7.8,0.3,15.5,0.8,23.3,0.8
		c7.8,0.1,15.5,0,23.2-0.1c7.8-0.2,15.5-0.4,23.2-1c3.6-0.3,6.7,2.5,7,6.1s-2.5,6.7-6.1,7c-0.3,0-0.6,0-0.9,0
		c-7.8-0.6-15.5-0.8-23.2-1c-7.8-0.1-15.5-0.2-23.2-0.1c-7.8,0.1-15.5,0.5-23.3,0.8c-3.9,0.2-7.8,0.4-11.6,0.5
		c-1.9,0.1-3.9,0.1-5.8,0.1c-1.9-0.1-3.9,0.5-5.8-1.1c-3.2-2.6-3.7-7.2-1.1-10.4C-171.4,31-171,30.6-170.6,30.3z"/>
</g>
<path class="st0" d="M14.9-60.2c0.1,0.5,0.3,0.9,0.6,1.1c1,0.8,2.1,1.6,3.1,2.5c2.4,2,4.7,4.1,7,6c2.4,1.9,4.8,3.6,7.3,5.2
	c2.5,1.6,5,3,7.6,4.1c1.1,0.5,1.8,2.1,1.6,3.7c-0.3,1.7-1.5,2.7-2.7,2.2c-0.3-0.1-0.5-0.3-0.7-0.5c-2.2-2.3-4.6-4.3-6.9-6.2
	c-2.4-1.8-4.8-3.6-7.3-5.1c-2.5-1.5-5.1-2.9-7.6-4.4c-1.3-0.7-2.5-1.5-3.7-2.3c-0.6-0.4-1.2-0.9-1.8-1.4l-1-0.9
	c-0.4-0.4-0.8-1-1-1.6C9-58.3,8.9-59,8.9-59.7c0-0.7,0.1-1.4,0.4-2c0.2-0.6,0.6-1.2,1-1.5l0.2-0.1c0,0,0.1-0.1,0.1-0.1l0.1-0.1
	l0.2-0.1c0.2-0.1,0.3-0.2,0.5-0.3c0.6-0.4,1.2-0.8,1.8-1.2c1.2-0.8,2.5-1.5,3.8-2.3c2.5-1.5,5-3,7.4-4.8c2.4-1.8,4.8-3.6,7.2-5.5
	c2.3-1.9,4.7-3.9,6.9-6c1.1-1,2.5-0.7,3.3,0.7c0.8,1.5,0.5,3.7-0.6,4.7c-0.2,0.2-0.4,0.3-0.6,0.4c-2.6,1.2-5.1,2.7-7.6,4.2
	c-2.5,1.5-5,3.1-7.4,4.8c-2.4,1.7-4.8,3.6-7.2,5.5c-1.2,1-2.4,1.9-3.6,2.8L14.9-60.2z"/>
<g>
	<path d="M247.7-38.7c-8.4,2.8-16.6,6-24.7,9.4c-8.1,3.4-16.1,7-24,10.8c-7.9,3.8-15.6,8-23.2,12.4c-3.8,2.2-7.6,4.3-11.5,6.4
		c-1.9,1.1-3.9,2.1-5.8,3.1c-0.5,0.2-1,0.5-1.5,0.8l-0.7,0.4l-0.4,0.2c-0.1,0.1,0,0,0.1,0c0.1,0,0.1,0,0.1-0.1
		c0.4-0.2,0.8-0.6,1.1-1c0.3-0.4,0.4-0.9,0.5-1.4c0-0.5,0-1-0.3-1.6c-0.2-0.5-0.6-1-1.1-1.3c-0.1,0-0.1-0.1-0.2-0.1c-0.1,0,0,0,0,0
		l0.1,0l0.4,0.1l0.8,0.3l1.5,0.6c2,0.8,4,1.7,6,2.8c3.9,2,7.7,4.2,11.5,6.4c7.6,4.4,15,9.2,22.7,13.5c7.7,4.3,15.5,8.2,23.5,11.8
		c8,3.6,16.2,6.9,24.7,9.3c3.7,1.1,5.8,4.9,4.7,8.6c-1.1,3.7-4.9,5.8-8.6,4.7c-0.8-0.2-1.6-0.6-2.2-1.1c-7.2-5.3-14.8-9.8-22.5-14
		c-7.7-4.2-15.6-8-23.7-11.5c-8.1-3.5-16.4-6.5-24.5-9.8c-4.1-1.7-8.1-3.4-12.1-5.2c-2-0.9-3.9-1.9-5.8-3.1l-3.2-2
		c-1.4-0.9-2.6-2.2-3.4-3.6c-0.8-1.5-1.1-3.1-1.1-4.7c0-1.6,0.5-3.2,1.3-4.6c0.8-1.4,2-2.6,3.3-3.4l0.5-0.3c0.1-0.1,0.4-0.2,0.4-0.2
		l0.4-0.2l0.8-0.3c0.5-0.2,1-0.5,1.5-0.7c2-0.9,4-1.9,6-2.8c4-1.8,8.1-3.5,12.1-5.2c8.1-3.3,16.2-6.8,24-10.8
		c7.8-4,15.6-8.1,23.2-12.5c7.7-4.3,15.2-8.8,22.6-13.8c3.5-2.3,8.2-1.4,10.5,2c2.3,3.5,1.4,8.2-2,10.5
		C249-39.2,248.4-38.9,247.7-38.7z"/>
</g>
<g>
	<path class="st1" d="M18.8,7.8c5,2.4,9.1,6,13.4,9.4c2.1,1.7,4.2,3.4,6.3,5.1l3.2,2.6l1.6,1.3l0.3,0.3c0.1,0.1,0.3,0.2,0.4,0.4
		c0.3,0.3,0.5,0.6,0.7,0.9c0.4,0.6,0.7,1.4,0.9,2.1c0.4,1.5,0.2,3.1-0.5,4.4c-0.3,0.7-0.8,1.3-1.3,1.8L43,36.8l-3,2.7
		c-2,1.8-4,3.7-6,5.5c-3.9,3.7-7.8,7.6-11.5,11.6c-1.6,1.7-4.2,1.9-6,0.3c-1.7-1.6-1.9-4.2-0.3-6c0.2-0.2,0.4-0.4,0.6-0.5
		c4.3-3.3,8.5-6.9,12.5-10.5c2-1.8,4-3.7,6-5.5l3-2.8l0.4-0.4l0.2-0.2l0.1-0.1l0,0l0,0c0,0-0.1,0.1-0.2,0.2
		c-0.1,0.1-0.1,0.3-0.1,0.5c0,0.1,0,0.2,0.1,0.3c0,0,0,0.1,0.1,0.1c0,0,0,0,0,0l0,0L38.8,32l-1.6-1.2l-3.3-2.4
		c-2.2-1.6-4.4-3.2-6.6-4.8C23,20.2,18.5,17.2,14.9,13c-1.2-1.4-1-3.5,0.4-4.7C16.3,7.4,17.7,7.3,18.8,7.8z"/>
</g>
<g>
	<path class="st1" d="M114.3,13c-3.6,4.2-8.2,7.2-12.4,10.6c-2.2,1.6-4.4,3.2-6.6,4.8l-3.3,2.4L90.3,32l-0.1,0.1l0,0c0,0,0,0,0,0
		c0,0,0.1-0.1,0.1-0.1c0-0.1,0.1-0.2,0.1-0.3c0-0.2,0-0.3-0.1-0.5c0-0.1-0.1-0.1-0.2-0.2l0,0l0,0l0.1,0.1l0.2,0.2l0.4,0.4l3,2.8
		c2,1.8,4,3.7,6,5.5c4,3.6,8.2,7.2,12.5,10.5c1.9,1.4,2.2,4.1,0.8,5.9c-1.4,1.9-4.1,2.2-5.9,0.8c-0.2-0.2-0.4-0.4-0.6-0.5
		c-3.6-4.1-7.5-7.9-11.5-11.6c-2-1.9-4-3.7-6-5.5l-3-2.7l-0.8-0.7c-0.5-0.5-1-1.1-1.3-1.8c-0.7-1.4-0.9-3-0.5-4.4
		c0.2-0.7,0.5-1.5,0.9-2.1c0.2-0.3,0.5-0.6,0.7-0.9c0.1-0.1,0.3-0.3,0.4-0.4l0.3-0.3l1.6-1.3l3.2-2.6c2.1-1.7,4.2-3.5,6.3-5.1
		c4.3-3.3,8.4-6.9,13.4-9.4c1.7-0.8,3.7-0.1,4.4,1.6C115.3,10.6,115.1,12,114.3,13z"/>
</g>
</svg>
