<?xml version="1.0" encoding="utf-8"?>
<!-- Generator: Adobe Illustrator 24.1.0, SVG Export Plug-In . SVG Version: 6.00 Build 0)  -->
<svg version="1.1" id="Layer_1" xmlns="http://www.w3.org/2000/svg" xmlns:xlink="http://www.w3.org/1999/xlink" x="0px" y="0px"
	 viewBox="0 0 90 90" style="enable-background:new 0 0 90 90;" xml:space="preserve">
<g>
	<path d="M12,3.5c2.6,0.3,3.7,2.2,5.3,3.6c1.5,1.5,3,3,4.4,4.5c2.9,3.1,5.8,6.1,8.6,9.1C36.1,26.9,41.7,33,47.7,39
		s11.9,11.8,17.9,17.6c6.1,5.8,12.2,11.5,18.5,17c3.2,2.8,3.5,7.7,0.8,10.9c-2.8,3.2-7.7,3.5-10.9,0.8c-0.2-0.2-0.5-0.5-0.8-0.8
		C67.7,78,62,72,56.3,66C50.5,59.8,44.6,53.9,38.7,48c-6-6-12.2-11.6-18.3-17.4c-3.1-2.9-6.2-5.7-9.1-8.6c-1.5-1.4-3-3-4.5-4.4
		c-1.4-1.5-3.3-2.7-3.6-5.3C2.6,8,5.8,4,10.1,3.6C10.9,3.4,11.5,3.4,12,3.5z"/>
</g>
<g>
	<path d="M4.2,77.5c1.2-1.7,2.8-3.2,4.1-4.7l4.2-4.7l8.5-9.3l17.1-18.6l2.1-2.3c0.8-0.8,1.5-1.5,2.2-2.2l4.5-4.4l9-8.7
		C62.1,16.9,68.1,11,74.1,5.3c3.1-2.9,8-2.8,10.8,0.2c2.8,3,2.8,7.7,0,10.6c-5.8,6.1-11.6,12.2-17.4,18.1L59,43.4l-4.4,4.5
		c-0.8,0.8-1.4,1.5-2.2,2.2l-2.3,2.1L31.5,69.3l-9.3,8.4L17.5,82c-1.5,1.4-3.1,2.9-4.7,4.1c-2.7,2.1-6.6,1.5-8.6-1.1
		C2.4,82.8,2.5,79.7,4.2,77.5z"/>
</g>
</svg>
