<svg id="Layer_1" data-name="Layer 1" xmlns="http://www.w3.org/2000/svg" viewBox="0 0 384.12 31.84"><title>icons</title><path d="M7.38,9.43A136.7,136.7,0,0,1,30.9,10.86c7.69,1,15.19,2.26,22.63,3.1q5.56.69,11.09,1c3.69.17,7.28.22,11.08.09,7.51-.21,15-.64,22.59-1.2,15.09-1.19,30.22-3,45.53-4.37q11.48-1.09,23.09-1.71l5.82-.26,5.85-.17c2,0,3.76-.14,5.64-.14s3.72.12,5.58.23c3.74.19,7.47-.17,11.23-.35s7.51-.5,11.3-.79c7.56-.58,15.18-1.24,22.87-1.78s15.46-1,23.29-1,15.58.16,23.27.46c15.36.64,30.61,1.62,45.83,2.46,7.61.41,15.21.8,22.78,1.12S365.51,8,373,8h0a7.06,7.06,0,1,1,0,14.12h0c-7.82,0-15.51-.3-23.19-.63s-15.32-.74-22.95-1.17c-15.26-.83-30.48-1.7-45.62-2.27-7.56-.27-15.09-.47-22.51-.35s-14.91.55-22.44,1.13-15.11,1.27-22.76,1.91q-5.75.48-11.54.87l-5.8.35c-2,.08-3.89.2-5.83.45s-3.9.47-5.87.5-4,0-5.8,0l-5.6,0-5.63.05c-7.5.13-15,.43-22.62.75-15.15.68-30.43,1.65-45.81,2.25-7.69.32-15.42.51-23.17.47-3.83,0-7.87,0-11.8-.26q-3-.18-5.88-.43c-2-.15-3.9-.32-5.84-.52-7.74-.8-15.34-1.79-22.8-2.65S14.67,21.18,7.38,20.76H7.31A5.67,5.67,0,0,1,7.38,9.43Z"/></svg>