<?xml version="1.0" encoding="utf-8"?>
<!-- Generator: Adobe Illustrator 24.1.2, SVG Export Plug-In . SVG Version: 6.00 Build 0)  -->
<svg version="1.1" id="Layer_1" xmlns="http://www.w3.org/2000/svg" xmlns:xlink="http://www.w3.org/1999/xlink" x="0px" y="0px"
	 viewBox="0 0 52 52" style="enable-background:new 0 0 52 52;" xml:space="preserve">
<style type="text/css">
	.st0{fill:#4A60A3;}
</style>
<g id="Facebook-5">
	<g>
		<g id="Facebook-6_7_">
			<path class="st0" d="M14.3,4c1,0,1.5,0.1,2,0.2c0.6,0.1,1.4,0.2,2.7,0.2c0.8,0,1.2,0.1,1.7,0.3c0.7,0.2,1.5,0.5,3,0.5
				c1.4,0,2.1-0.1,2.8-0.3c0.5-0.1,1-0.2,2-0.2c1.3,0,2-0.1,2.6-0.1c0.6-0.1,1.1-0.1,2.2-0.1c1.2,0,1.9,0,2.5-0.1
				c0.6,0,1.1-0.1,2.2-0.1c1,0,1.5,0.1,2.1,0.2c0.6,0.1,1.3,0.2,2.7,0.2c1.4,0,2.1-0.2,2.8-0.3c0.5-0.1,1-0.2,1.9-0.2l0.1,0
				c0.1,0.2,0.1,0.5,0.1,0.8c0,1.6,0.4,2.5,0.8,3.2c0.2,0.5,0.4,0.8,0.4,1.5c0,1-0.1,1.5-0.2,2c-0.1,0.6-0.2,1.4-0.2,2.7
				c0,0.8-0.1,1.1-0.3,1.6c-0.3,0.7-0.6,1.5-0.6,3.1c0,1.2,0,1.9,0.1,2.5c0,0.6,0.1,1.1,0.1,2.2c0,1.4,0.2,2.2,0.4,2.9
				c0.1,0.5,0.3,0.9,0.3,1.8c0,1.4,0.2,2.2,0.3,2.8c0.1,0.5,0.2,1,0.2,1.9c0,0.7-0.1,0.9-0.4,1.4c-0.4,0.7-0.8,1.6-0.8,3.3
				c0,1.4,0.2,2.2,0.4,2.9c0.1,0.5,0.2,0.9,0.2,1.9c0,1.1,0,1.6-0.1,2.2c0,0.6-0.1,1.2-0.1,2.4l-0.1,0.1c0,0.5-0.3,1-0.5,1.1
				c-1,0-1.5,0-2,0c-0.5,0-1,0-2.1,0c-0.7,0-1-0.1-1.4-0.2c-0.6-0.2-1.3-0.4-2.6-0.4c-1.1,0-2,0.4-2.7,0.7c0.4-0.8,0.9-1.8,0.9-3.1
				c0-1.1,0-1.7,0-2.2c0-0.6,0-1.2,0-2.4c0-1.1,0-1.6,0.1-2.2c0-0.6,0.1-1.2,0.1-2.4c0-1.4-0.5-2.4-0.9-3.1c0.2,0,0.5,0.2,0.7,0.3
				c0.7,0.3,1.6,0.8,2.7,0.8c0.8,0,1.5-0.2,2.3-0.6c2.4-1.3,1.7-3.6,1.5-4.3c-0.1-0.4-0.2-0.7-0.2-1c0-0.3,0.2-0.5,0.4-0.8
				c0.3-0.5,0.8-1.3,0.6-2.4c-0.3-1.1-1.3-1.7-1.7-1.9c-1-0.5-1.9-0.8-2.8-0.8c-0.9,0-1.6,0.2-2.2,0.4c-0.4,0.1-0.6,0.2-0.8,0.2
				c-0.2,0-0.4-0.1-0.7-0.3c0-0.1,0-0.1,0.1-0.2c0.2-0.7,0.6-1.6,0.6-2.8c0-0.4,0-0.7,0.1-0.7c0.1-0.1,0.6-0.2,1.6-0.2
				c0.4,0,0.7,0,0.9,0.1c0.2,0,0.5,0.1,0.7,0.1c1.8,0,2.6-1.4,3.1-2.1c1.6-2.7,1.7-3.5,0.9-6.2c-0.1-0.3-0.2-0.7-0.3-1.1l-1.7-1.5
				c-0.7-0.1-1.3-0.2-2-0.4c-1-0.2-2.1-0.5-3.4-0.5c-2.3,0-4.3,1-5.7,1.8c-1.7,0.9-3.6,2.1-4.6,4.2c-0.7,1.5-1,3.3-1,5.9
				c0,1.4,0.4,2.5,0.8,3.3c0.1,0.1,0.1,0.3,0.2,0.4c0,0-0.1,0.1-0.1,0.1c0,0-0.1,0-0.1,0.1c-0.2,0-0.6-0.3-0.9-0.4
				c-0.7-0.4-1.6-0.9-2.7-0.9c-0.7,0-1.8,0.2-2.8,1.4c-1.5,1.8-2.2,3.4-2.2,5c0.1,1.9,0.7,3.6,2,5.1c1,1.2,2.1,1.4,2.9,1.4
				c1,0,1.8-0.4,2.5-0.8c0.3-0.2,0.8-0.4,0.9-0.4c0,0,0.1,0,0.2,0.1c0.1,0.1,0.2,0.2,0.3,0.2c0,0.1,0,0.3-0.1,0.4
				c-0.1,0.5-0.2,1.2-0.2,2.1c0,1-0.1,1.4-0.2,2c-0.1,0.6-0.2,1.3-0.2,2.6c0,1.1,0,1.6-0.1,2.1c-0.1,0.6-0.1,1.2-0.1,2.5
				c0,1.2,0.3,2.1,0.5,2.7c0,0.1,0.1,0.2,0.1,0.3c0,0-0.1,0.1-0.1,0.1c0,0,0,0-0.1,0.1c-0.1,0-0.1-0.1-0.2-0.1
				c-0.6-0.2-1.5-0.6-2.8-0.6c-1.5,0-2.3,0.3-3,0.6c-0.5,0.2-0.8,0.3-1.6,0.3c-1,0-1.5-0.1-2-0.1c-0.6-0.1-1.3-0.2-2.6-0.2
				c-1.1,0-1.6,0-2.2-0.1c-0.6,0-1.2-0.1-2.4-0.1c-0.8,0-1.1-0.1-1.6-0.3c-0.6-0.2-1.5-0.5-2.9-0.5l0,0l0,0l-0.4,0.2
				c0-0.1,0-0.2,0-0.3c0-1.5-0.2-2.3-0.4-2.9C4,44,3.9,43.6,3.9,42.7c0-1,0.1-1.4,0.2-2c0.1-0.6,0.3-1.4,0.3-2.7c0-1.2,0-1.8,0-2.4
				c0-0.6,0-1.1,0-2.3c0-1.3-0.1-2-0.2-2.7c-0.1-0.5-0.2-1-0.2-2c0-1.1,0-1.6,0.1-2.2c0.1-0.6,0.1-1.3,0.1-2.5c0-1.1,0-1.6,0.1-2.2
				c0-0.6,0.1-1.3,0.1-2.5c0-1.2,0-1.8,0-2.4c0-0.6,0-1.1,0-2.3c0-1.3-0.1-2-0.2-2.6c-0.1-0.6-0.1-1-0.1-2.1c0-1.1,0-1.6,0.1-2.2
				C4,7.1,4,6.6,4,5.8l0.7-0.7c0-0.5,0.1-0.9,0.2-1c0.9,0,1.2,0.1,1.8,0.2c0.6,0.2,1.4,0.4,2.9,0.4c1.5,0,2.3-0.2,2.9-0.4
				C13.1,4.2,13.4,4,14.3,4 M5,4.1L5,4.1L5,4.1 M4,5.1L4,5.1L4,5.1 M37.1,19.1L37.1,19.1L37.1,19.1 M36,22.7L36,22.7L36,22.7
				 M47.3,1.7c-0.1,0,0,0.5-0.1,0.6c-2.4,0-2.4,0.5-4.7,0.5c-2.4,0-2.4-0.4-4.7-0.4s-2.4,0.1-4.7,0.1c-2.4,0-2.4,0.2-4.7,0.2
				c-2.4,0-2.4,0.5-4.7,0.5c-2.4,0-2.4-0.8-4.7-0.8c-2.4,0-2.4-0.4-4.7-0.4C12,2,12,2.8,9.6,2.8S7.2,2.1,4.9,2.1
				c-1.5,0-2.2,1.5-2.2,3H2c0,2.4-0.2,2.4-0.2,4.7c0,2.4,0.3,2.4,0.3,4.7s0.1,2.4,0.1,4.7c0,2.4-0.2,2.4-0.2,4.7
				c0,2.4-0.2,2.4-0.2,4.7c0,2.4,0.4,2.4,0.4,4.7c0,2.4,0.1,2.4,0.1,4.7c0,2.4-0.5,2.4-0.5,4.7c0,2.4,0.7,2.4,0.7,4.7
				c0,1.5,0.9,2.7,2.3,2.7c0,0,0,0,0,0c0.1,0,0-0.6,0.1-0.6c0,0,0,0,0,0c2.3,0,2.2,0.8,4.5,0.8c2.3,0,2.3,0.1,4.6,0.1
				c2.3,0,2.3,0.3,4.6,0.3c2.3,0,2.3-0.9,4.6-0.9c1.5,0,2.3,0.7,3.1,0.7c0.4,0,0.8-0.2,1.4-0.7c1.6-1.6,0.1-2.2,0.1-4.5
				c0-2.3,0.2-2.3,0.2-4.6c0-2.3,0.4-2.3,0.4-4.6c0-2.3,1-2.9-0.8-4.3c-0.5-0.4-0.9-0.5-1.4-0.5c-1.3,0-2.3,1.1-3.4,1.1
				c-0.5,0-0.9-0.2-1.4-0.7c-1.2-1.4-1.5-2.7-1.5-3.9c0-1.1,0.5-2.3,1.7-3.6c0.4-0.5,0.9-0.7,1.3-0.7c1.2,0,2.4,1.3,3.7,1.3
				c0.4,0,0.9-0.1,1.3-0.5c2-1.7-0.2-2.7-0.2-5.3c0-1.9,0.2-3.7,0.8-5c0.8-1.6,2.3-2.5,3.8-3.3c1.4-0.7,3-1.6,4.8-1.6c0,0,0,0,0,0
				c1.8,0,3.3,0.7,5.2,0.9c0.9,3.1,1.2,2.9-0.4,5.7c-0.6,0.9-0.8,1.1-1.4,1.1c-0.4,0-0.9-0.1-1.7-0.1c-3,0-3.7,0.8-3.7,2.9
				c0,2.3-1.8,3.3,0.1,4.6c0.8,0.5,1.4,0.7,1.9,0.7c1.1,0,1.9-0.7,3.1-0.7c0.5,0,1.1,0.1,1.8,0.5c1.6,0.9-0.1,1.3-0.3,3.1
				c-0.2,1.8,1.3,3-0.2,3.8c-0.5,0.3-0.9,0.4-1.4,0.4c-1.3,0-2.2-1.1-3.4-1.1c-0.4,0-0.9,0.1-1.5,0.6c-1.8,1.4,0.4,2.2,0.4,4.6
				c0,2.3-0.1,2.3-0.1,4.6c0,2.3-0.1,2.3-0.1,4.6c0,2.3-2.3,3.3-0.8,5.1c0.3,0.4,0.7,0.5,1,0.5c1,0,2-1.2,3.5-1.2c2,0,2,0.7,4,0.7
				c2,0,2,0,4,0c1.5,0,2.5-1.6,2.5-3.1h0.1c0-2.4,0.2-2.4,0.2-4.7c0-2.4-0.6-2.4-0.6-4.7s1.2-2.4,1.2-4.7c0-2.4-0.6-2.4-0.6-4.7
				c0-2.4-0.6-2.4-0.6-4.7c0-2.4-0.1-2.4-0.1-4.7c0-2.4,0.9-2.4,0.9-4.7c0-2.4,0.4-2.4,0.4-4.7c0-2.4-1.1-2.4-1.1-4.7
				C49.5,3.7,48.8,1.7,47.3,1.7C47.3,1.7,47.3,1.7,47.3,1.7L47.3,1.7z"/>
		</g>
	</g>
</g>
</svg>
