<?xml version="1.0" encoding="utf-8"?>
<!-- Generator: Adobe Illustrator 24.0.3, SVG Export Plug-In . SVG Version: 6.00 Build 0)  -->
<svg version="1.1" id="Layer_1" xmlns="http://www.w3.org/2000/svg" xmlns:xlink="http://www.w3.org/1999/xlink" x="0px" y="0px"
	 viewBox="0 0 148.4 130.6" style="enable-background:new 0 0 148.4 130.6;" xml:space="preserve">
<style type="text/css">
	.st0{fill:#FFFFFF;}
</style>
<g>
	<path class="st0" d="M27.4,58.4c1.9-1.5,3.9-1,5.8-1.1c1.9,0,3.9,0,5.8,0.1c3.9,0.1,7.8,0.2,11.6,0.3c7.8,0.3,15.5,0.6,23.3,0.6
		c7.8,0,15.5-0.1,23.2-0.2c7.8-0.2,15.5-0.5,23.2-1c3.9-0.3,7.3,2.7,7.6,6.6c0.3,3.9-2.7,7.3-6.6,7.6c-0.3,0-0.7,0-1,0
		c-7.8-0.6-15.5-0.8-23.2-1c-7.8-0.2-15.5-0.3-23.2-0.2c-7.8,0-15.5,0.4-23.3,0.6c-3.9,0.1-7.8,0.3-11.6,0.3c-1.9,0.1-3.9,0-5.8,0.1
		c-1.9-0.1-3.9,0.4-5.8-1.1c-3.2-2.5-3.7-7.2-1.2-10.3C26.6,59.1,27,58.7,27.4,58.4z"/>
</g>
<g>
	<path class="st0" d="M27.4,23.5c1.9-0.3,3.9-0.3,5.8-0.4l5.8-0.3l11.6-0.5l23.3-1l2.9-0.1c1,0,1.9,0,2.9,0l5.8,0.1l11.6,0.2
		c7.8,0.2,15.5,0.3,23.2,0.5c3.9,0.1,7,3.4,6.9,7.2c-0.1,3.8-3.2,6.8-6.9,6.9c-7.8,0.2-15.5,0.4-23.2,0.5L85.5,37l-5.8,0.1
		c-1,0-1.9,0.1-2.9,0L73.9,37l-23.3-1L39,35.4l-5.8-0.3c-1.9-0.1-3.9-0.1-5.8-0.4c-3.1-0.4-5.3-3.3-4.9-6.4
		C22.8,25.8,24.9,23.8,27.4,23.5z"/>
</g>
<g>
	<path class="st0" d="M27.9,92.9c1.9-1.6,3.9-1,5.8-1.1c1.9,0,3.9,0,5.8,0.1c3.9,0.1,7.8,0.3,11.6,0.5c7.8,0.3,15.5,0.8,23.3,0.8
		c7.8,0.1,15.5,0,23.2-0.1c7.8-0.2,15.5-0.4,23.2-1c3.6-0.3,6.7,2.5,7,6.1c0.3,3.6-2.5,6.7-6.1,7c-0.3,0-0.6,0-0.9,0
		c-7.8-0.6-15.5-0.8-23.2-1c-7.8-0.1-15.5-0.2-23.2-0.1c-7.8,0.1-15.5,0.5-23.3,0.8c-3.9,0.2-7.8,0.4-11.6,0.5
		c-1.9,0.1-3.9,0.1-5.8,0.1c-1.9-0.1-3.9,0.5-5.8-1.1c-3.2-2.6-3.7-7.2-1.1-10.4C27.1,93.6,27.5,93.2,27.9,92.9z"/>
</g>
</svg>
