<?xml version="1.0" encoding="utf-8"?>
<!-- Generator: Adobe Illustrator 24.0.3, SVG Export Plug-In . SVG Version: 6.00 Build 0)  -->
<svg version="1.1" id="Layer_1" xmlns="http://www.w3.org/2000/svg" xmlns:xlink="http://www.w3.org/1999/xlink" x="0px" y="0px"
	 viewBox="0 0 410.9 168.6" style="enable-background:new 0 0 410.9 168.6;" xml:space="preserve">
<style type="text/css">
	.st0{fill:#FFFFFF;}
</style>
<path class="st0" d="M242.3,162.4c0,0,4.2-6.7,6.1-12.3c2-5.6,4.7-21.8,4.5-26s5.9-18.1,10.3-20.1s14.5-0.3,24.6,0
	c10,0.3,99.9,5,116.4-36.6c8.7-24,0-41-47.7-50.5s-130-10-147.3-9.8c-17.3,0.3-93.5,2.8-132,7.3S7.3,34,4,53.3S32.5,96,74,100.4
	c41.6,4.5,131.7,3.3,131.7,3.3h29.3c0,0,5.3-0.6,3.3,2.5c-2.7,4.2-4.2,15.6-2.5,19.8c1.7,4.2,6.7,12,5.9,18.4
	c-0.8,6.4-1,12.7-1.4,14.4C240,160.6,240.2,163.5,242.3,162.4z"/>
</svg>
