<?xml version="1.0" encoding="utf-8"?>
<!-- Generator: Adobe Illustrator 24.1.2, SVG Export Plug-In . SVG Version: 6.00 Build 0)  -->
<svg version="1.1" id="Layer_1" xmlns="http://www.w3.org/2000/svg" xmlns:xlink="http://www.w3.org/1999/xlink" x="0px" y="0px"
	 viewBox="0 0 52 52" style="enable-background:new 0 0 52 52;" xml:space="preserve">
<style type="text/css">
	.st0{fill:#4A60A3;}
</style>
<g>
	<path class="st0" d="M44.6,3.3c0.1,0,0.2,0,0.5,0.2c1.9,1.1,2,1.2,2.9,3.4c0.1,0.2,0.2,0.5,0.3,0.8c0.3,0.6,0.2,0.7,0.1,1.3
		c-0.2,0.6-0.4,1.4-0.4,2.6c0,1.4,0.2,2.1,0.3,2.8c0.1,0.5,0.2,0.9,0.2,1.9c0,0.9-0.1,1.3-0.2,1.8c-0.2,0.6-0.4,1.4-0.4,2.8
		c0,1.4,0.2,2.2,0.4,2.9c0.1,0.5,0.3,0.9,0.3,1.8c0,0.8-0.1,1.1-0.3,1.6c-0.3,0.7-0.6,1.5-0.6,3.1c0,1.5,0.3,2.4,0.6,3
		c0.2,0.5,0.3,0.8,0.3,1.6c0,0.9-0.1,1.4-0.2,1.9c-0.1,0.6-0.3,1.4-0.3,2.7c0,1,0.1,1.7,0.2,2.2c0.1,0.6,0.1,0.7-0.3,1.4l-0.4,0.8
		c-1.1,2.2-1.1,2.2-3.4,3.3c-0.5,0.2-0.7,0.3-0.8,0.3c-0.1,0-0.3-0.1-0.6-0.1c-0.6-0.2-1.4-0.4-2.7-0.4c-1.4,0-2.2,0.1-2.8,0.2
		c-0.6,0.1-1.1,0.2-2.2,0.2c-1.2,0-1.7,0-2.3-0.1c-0.6,0-1.3-0.1-2.6-0.1c-1,0-1.5-0.1-2.1-0.2c-0.7-0.1-1.4-0.3-2.9-0.3
		c-1.4,0-2.1,0.1-2.7,0.1c-0.6,0.1-1.1,0.1-2.3,0.1c-1.3,0-2,0-2.6,0.1c-0.6,0-1.2,0.1-2.4,0.1c-1.3,0-2,0.1-2.7,0.1
		c-0.6,0.1-1.1,0.1-2.3,0.1c-1.2,0-1.8,0-2.4,0.1c-0.4,0-0.8,0-1.4,0c-0.3,0-0.7,0-1.1,0c-0.5,0-0.9-0.1-1.2-0.1
		c0-0.4,0.1-0.7,0.1-1.1c0.1-0.7,0.1-1.3,0.1-2.7c0-1.5-0.2-2.3-0.4-3c-0.2-0.6-0.3-1-0.3-1.9c0-1.2,0-1.7,0.1-2.3
		c0-0.6,0.1-1.3,0.1-2.6c0-1.1,0.1-1.6,0.1-2.2C4,30.8,4.1,30,4.1,28.7c0-1.3,0-2-0.1-2.6C4,25.5,4,24.9,4,23.8
		c0-1.4-0.1-2.1-0.2-2.8c-0.1-0.6-0.2-1.1-0.2-2.2c0-0.9,0.1-1.3,0.3-1.8c0.2-0.7,0.5-1.5,0.5-3.1c0-1.2,0-1.9,0-2.5
		c0-0.6,0-1.2,0-2.4c0-1.1-0.1-1.8-0.2-2.3c-0.1-0.7-0.1-0.9,0.2-2C4.5,4.5,4.5,4.2,4.6,4c0.5-0.1,1-0.2,1.3-0.2
		c0.9-0.2,1.3-0.2,2.7-0.2c0.9,0,1.3,0.1,1.8,0.3C11,4,11.8,4.2,13.3,4.2c1.2,0,1.8,0,2.4,0c0.6,0,1.1,0,2.3,0
		c1.4,0,2.1-0.1,2.7-0.2c0.5-0.1,1-0.2,2-0.2c1,0,1.5,0.1,2,0.2C25.3,4,26,4.1,27.3,4.1c1.3,0,2-0.1,2.6-0.2c0.5-0.1,1-0.2,2-0.2
		c0.9,0,1.3,0.1,1.8,0.3c0.6,0.2,1.4,0.4,2.9,0.4c1.3,0,2-0.1,2.7-0.2c0.5-0.1,1-0.2,2-0.2c1.2,0,2.1-0.3,2.7-0.5
		C44.2,3.4,44.5,3.3,44.6,3.3L44.6,3.3 M23.8,20c-0.1,0-0.1,0-0.2,0c-1,0-2-0.1-2.8-0.3c-0.7-0.3-1.5-0.8-2.2-1.4
		c-0.4-0.4-0.9-0.7-1.4-1.1c-0.5-0.4-1.1-0.6-1.6-0.9c-0.8-0.5-1.7-0.9-2.1-1.5c-0.4-0.4-1.2-1.2-2.3-1.2c-0.9,0-1.7,0.5-2.1,1.4
		c-0.8,1.9-0.2,3.8,0.3,5.3c0.1,0.2,0.2,0.5,0.2,0.7c0,0.1,0.1,0.3,0.1,0.4c-0.7,0.5-1.1,1.5-1.1,2.1c0,2.1,0.7,4.2,2,5.7
		c0.2,0.3,0.5,0.6,0.8,0.8c-0.4,0.7-0.4,1.5-0.1,2.2c0.6,1.3,1.7,2.5,3.1,3.4c0,0,0,0-0.1,0c-1.3,0.4-2.4,0.5-3.3,0.5
		c-0.1,0-0.3-0.1-0.5-0.1c-0.3-0.1-0.6-0.2-1-0.2l-1.3,3.7c1.7,1.1,3.5,2.2,5.5,2.8c0.8,0.2,1.6,0.3,2.6,0.3c0.6,0,1.3,0,1.9-0.1
		c0.6,0,1.1-0.1,1.6-0.1c1.9,0,3.7,0,5.5-0.5l0.6-0.2c1.6-0.4,3.2-0.8,4.7-1.6c1.7-1,3.1-2.4,4.3-3.6c1.1-1.2,1.9-2.5,2.5-3.7
		c0.2-0.3,0.3-0.6,0.5-0.9c0.3-0.4,0.6-0.9,1-1.4c0.7-1,1.5-2,1.9-3.4c0.5-1.7,0.7-3.6,0.7-5.4c0.3-0.4,0.6-0.8,0.8-1.1
		c0.2-0.3,0.3-0.5,0.5-0.7c0.7-0.8,0.8-1.8,0.4-2.8c-0.1-0.2-0.2-0.3-0.3-0.4c0.3-0.7,0.3-1.5-0.1-2.1c-0.4-0.8-1.3-1.3-2.2-1.3
		c-0.4,0-0.8,0.1-1.1,0.2c-0.3,0.1-0.7,0.2-1.1,0.2c-0.3,0-0.6,0.1-0.9,0.1c-1.4-1.2-3.1-2.3-5.1-2.3l-0.1,0c-2,0-4.1,1-6,2.8
		C24.8,15.7,24,17.6,23.8,20 M4.7,3.5L4.7,3.5L4.7,3.5 M44.6,1.3c-1,0-1.7,0.7-3.3,0.7C39,2,39,2.4,36.6,2.4S34.3,1.7,32,1.7
		s-2.3,0.4-4.7,0.4c-2.3,0-2.3-0.4-4.7-0.4c-2.3,0-2.3,0.4-4.7,0.4c-2.3,0-2.3,0.1-4.7,0.1c-2.3,0-2.3-0.7-4.7-0.7S6.2,1.7,3.9,2.1
		C2.6,2.3,2.8,2.9,2.4,4.2c-0.6,2.4,0,2.3,0,4.8c0,2.5,0,2.5,0,4.9s-0.8,2.5-0.8,4.9S2,21.3,2,23.8c0,2.5,0.2,2.5,0.2,4.9
		c0,2.5-0.3,2.5-0.3,4.9c0,2.5-0.2,2.5-0.2,4.9c0,2.5,0.7,2.5,0.7,4.9s-0.2,2.5-0.2,4.9c0,0.3,1.5,0.9,3.2,0.9c0.5,0,0.9,0,1.2,0
		c1.4,0,1.8-0.1,3.8-0.1c2.5,0,2.5-0.2,5-0.2c2.5,0,2.5-0.2,5-0.2c2.5,0,2.5-0.3,5-0.3c2.5,0,2.5,0.5,5,0.5c2.5,0,2.5,0.2,5,0.2
		c2.5,0,2.5-0.4,5-0.4c1.7,0,2.3,0.6,3.3,0.6c0.4,0,0.9-0.1,1.6-0.5c3.1-1.5,3.1-1.9,4.7-5c1.1-2.1,0.3-2.1,0.3-4.5
		c0-2.3,0.5-2.3,0.5-4.6c0-2.3-0.9-2.3-0.9-4.6c0-2.3,0.9-2.3,0.9-4.6c0-2.3-0.7-2.3-0.7-4.6c0-2.3,0.6-2.3,0.6-4.6
		c0-2.3-0.5-2.3-0.5-4.6s1.1-2.5,0.2-4.7c-1.2-3-1.3-3.5-4-5.1C45.5,1.5,45,1.3,44.6,1.3L44.6,1.3z M25.1,22c0.3,0,0.7-0.2,0.6-0.5
		c0-0.3,0-0.6,0-0.9c0-1.9,0.6-3.6,1.9-4.9c1.3-1.2,3-2.2,4.7-2.2c0,0,0,0,0,0c1.7,0,3.2,1.2,4.5,2.5c0,0,0.1,0,0.1,0
		c0.2,0,0.4-0.1,0.5-0.2c0.9-0.2,1.9-0.1,2.8-0.5c0.1,0,0.2-0.1,0.3-0.1c0.4,0,0.7,0.3,0.4,0.7c-0.2,0.3-0.4,0.7-0.7,1
		c-0.3,0.4-0.1,1.2,0.4,1.2c0,0,0.1,0,0.1,0c0,0-0.1-0.5-0.1-0.5c0.1,0,0.1,0,0.2,0c0.4,0,0.7,0.6,0.4,0.9c-0.7,0.7-0.9,1.7-1.7,2.3
		c-0.2,0.4,0,0.2,0,0.7c0,1.6-0.2,3.4-0.7,5.1c-0.4,1.6-1.9,2.9-2.7,4.3c-0.8,1.4-1.5,3-2.7,4.2c-1.2,1.2-2.4,2.4-3.9,3.2
		c-1.4,0.8-3.1,1.2-4.8,1.6c-1.6,0.4-3.2,0.4-5,0.4c-1.1,0-2.3,0.2-3.5,0.2c-0.7,0-1.4-0.1-2.1-0.3c-1.8-0.5-3.4-1.5-5-2.5
		c0.5,0.1,1.1,0.3,1.7,0.3c0,0,0,0,0,0c1.3,0,2.6-0.3,3.8-0.6c1.2-0.3,2.3-1.1,3.4-1.8c0.4-0.3,0.3-0.7-0.2-0.8
		c-2-0.4-4.1-1.8-5-3.6c-0.2-0.4,0.5-0.9,0.9-0.9c0,0,0,0,0,0c0,0,0.1,0,0.1,0c0.7,0,1.5-0.3,2.2-0.4c-1.6-0.3-3.2-0.9-4.2-2
		c-1-1.2-1.5-2.8-1.5-4.4c0,0,0.2-0.4,0.3-0.4c0,0,0,0,0,0c0.9,0.5,1.8,1.2,2.9,1.2c-1.3-0.9-1.8-2.4-2.2-3.8
		c-0.4-1.5-1.2-3.1-0.6-4.6c0-0.1,0.1-0.1,0.2-0.1c0.2,0,0.6,0.3,0.8,0.5c1.1,1.2,2.8,1.8,4.1,2.7c1.3,0.9,2.6,2.2,4.1,2.7
		C21.7,22.1,23.4,21.9,25.1,22C25.1,22,25.1,22,25.1,22L25.1,22z"/>
</g>
</svg>
