<?xml version="1.0" encoding="utf-8"?>
<!-- Generator: Adobe Illustrator 24.0.3, SVG Export Plug-In . SVG Version: 6.00 Build 0)  -->
<svg version="1.1" id="Layer_1" xmlns="http://www.w3.org/2000/svg" xmlns:xlink="http://www.w3.org/1999/xlink" x="0px" y="0px"
	 viewBox="0 0 384.1 31.8" style="enable-background:new 0 0 384.1 31.8;" xml:space="preserve">
<g>
	<path d="M7.4,11.5c3.9-0.1,7.8,0,11.7,0.3c3.9,0.3,7.7,0.7,11.6,1.2c7.6,1,15.2,2.1,22.7,3c3.7,0.5,7.5,0.8,11.2,1
		c3.7,0.2,7.4,0.2,11.2,0.1c7.6-0.2,15.1-0.5,22.7-1.1c15.1-1.1,30.3-2.7,45.6-4c7.6-0.7,15.3-1.2,23-1.5l5.8-0.2l5.8-0.1
		c2,0,3.8-0.1,5.7-0.1c1.9,0,3.8,0,5.6,0.1c3.8,0.1,7.5-0.2,11.3-0.4c3.8-0.2,7.6-0.5,11.3-0.8c7.6-0.6,15.2-1.3,22.9-1.8
		c7.7-0.6,15.4-1,23.1-1.1c7.8-0.1,15.5,0.1,23.1,0.4c15.3,0.6,30.6,1.6,45.8,2.4c7.6,0.4,15.2,0.8,22.8,1.1
		c7.6,0.3,15.2,0.6,22.7,0.6h0c2.5,0,4.5,2,4.5,4.5c0,2.5-2,4.5-4.5,4.5h0c-7.7,0-15.4-0.3-23.1-0.6c-7.7-0.3-15.3-0.7-22.9-1.2
		c-15.3-0.8-30.5-1.7-45.7-2.3c-7.6-0.3-15.2-0.5-22.7-0.4c-7.5,0.1-15,0.5-22.6,1.1c-7.6,0.6-15.1,1.3-22.8,1.9
		c-3.8,0.3-7.6,0.6-11.5,0.9l-5.8,0.3c-1.9,0.1-3.9,0.2-5.8,0.4c-1.9,0.1-3.9,0.3-5.8,0.4c-1.9,0-3.9,0-5.8,0l-5.6,0l-5.7,0.1
		c-7.6,0.2-15.1,0.5-22.7,0.9c-15.2,0.8-30.4,1.9-45.8,2.6c-7.7,0.4-15.4,0.6-23.1,0.6c-3.8,0-7.8,0-11.7-0.2
		c-3.9-0.2-7.8-0.5-11.6-1c-7.7-0.8-15.3-1.9-22.8-2.7c-7.5-0.9-15-1.4-22.4-1.7l0,0c-2-0.1-3.5-1.7-3.4-3.7
		C4,13.1,5.5,11.6,7.4,11.5z"/>
</g>
</svg>
